<?xml version="1.0" encoding="utf-8"?>
<svg xmlns="http://www.w3.org/2000/svg" viewBox="6.721 3.376 112.593 70.21" xmlns:bx="https://boxy-svg.com" width="112.593px" height="70.21px"><defs><bx:export><bx:file format="svg" path="Associação Brasileira das Entidades dos Mercados Financeiro e de Capitais.svg"/></bx:export></defs><title>Associação Brasileira das Entidades dos Mercados Financeiro e de Capitais</title><g transform="matrix(1.5249, 0, 0, -1.5249, -88.3667, -636.246)" style="transform-origin: 153.829px 707.081px;"><g transform="translate(298.01871,735.0666)"><path fill="#f9a70d" d="m-123.13-29.238h-2.709s-7.007-0.785-11.216,5.288c-1.981,3.085-22.091,33.032-22.091,33.032l-14.027-38.32h-9.182l15.831,44.966h13.822l29.572-44.966z"/><path fill="#73c82c" d="m-168.91-29.238h2.71s7.009-0.785,11.225,5.288c1.986,3.085,22.086,33.032,22.086,33.032l14.03-38.32h9.183l-15.838,44.966h-13.814l-29.582-44.966z"/><path fill="#0994dc" d="m-146.01-10.548-5.341,7.986,5.341,8.122,5.343-8.122-5.343-7.986z"/></g><g transform="translate(497.9221,727.0889)"/></g></svg>